<?xml version="1.0" encoding="UTF-8"?>
<svg xmlns="http://www.w3.org/2000/svg" xmlns:xlink="http://www.w3.org/1999/xlink" version="1.1" viewBox="0 0 340 350">
  <defs>
    <style>
      .cls-1 {
        stroke: url(#linear-gradient-3);
      }

      .cls-1, .cls-2 {
        opacity: .3;
        stroke-width: 3px;
      }

      .cls-1, .cls-2, .cls-3, .cls-4, .cls-5 {
        fill: none;
        stroke-miterlimit: 10;
      }

      .cls-1, .cls-2, .cls-4, .cls-5 {
        mix-blend-mode: lighten;
      }

      .cls-2 {
        stroke: url(#linear-gradient);
      }

      .cls-3 {
        stroke: #cfb566;
      }

      .cls-6 {
        isolation: isolate;
      }

      .cls-4 {
        stroke: url(#linear-gradient-2);
      }

      .cls-4, .cls-5 {
        opacity: .7;
        stroke-width: 4px;
      }

      .cls-5 {
        stroke: url(#linear-gradient-4);
      }
    </style>
    <linearGradient id="linear-gradient" x1="39" y1="216.8" x2="130.8" y2="216.8" gradientTransform="translate(355.2) rotate(-180) scale(1 -1)" gradientUnits="userSpaceOnUse">
      <stop offset="0" stop-color="#d3b773"/>
      <stop offset=".2" stop-color="#cdab69"/>
      <stop offset=".5" stop-color="#bf8f51"/>
      <stop offset=".5" stop-color="#c09153"/>
      <stop offset=".7" stop-color="#d9c17c"/>
      <stop offset=".8" stop-color="#e8de96"/>
      <stop offset=".9" stop-color="#eeeaa0"/>
    </linearGradient>
    <linearGradient id="linear-gradient-2" x1="150.6" y1="228.1" x2="150.6" y2="185.4" gradientTransform="translate(355.2) rotate(-180) scale(1 -1)" gradientUnits="userSpaceOnUse">
      <stop offset=".2" stop-color="#bf8f51"/>
      <stop offset=".5" stop-color="#bf8f51"/>
      <stop offset=".5" stop-color="#c09153"/>
      <stop offset=".7" stop-color="#d9c17c"/>
      <stop offset=".8" stop-color="#e8de96"/>
      <stop offset=".9" stop-color="#eeeaa0"/>
    </linearGradient>
    <linearGradient id="linear-gradient-3" x1="39" x2="130.8" gradientTransform="matrix(1,0,0,1,0,0)" xlink:href="#linear-gradient"/>
    <linearGradient id="linear-gradient-4" x1="150.6" y1="228.1" x2="150.6" y2="185.4" gradientTransform="matrix(1,0,0,1,0,0)" xlink:href="#linear-gradient-2"/>
  </defs>
  <g class="cls-6">
    <g id="Layer_3" data-name="Layer 3">
      <g>
        <image width="383" height="50" transform="translate(224.4 210.8) scale(.2)" xlink:href="mmmm-1.png"/>
        <polyline class="cls-2" points="316.2 221.3 234.6 221.3 225.5 211.9"/>
        <image width="6" height="52" transform="translate(176.9 185.1) scale(.2)" xlink:href="mmmm-2.png"/>
        <image width="156" height="163" transform="translate(186.5 187.3) scale(.2)" xlink:href="mmmm-3.png"/>
        <image width="20" height="22" transform="translate(171.9 195.4) scale(.2)" xlink:href="mmmm-4.png"/>
        <image width="18" height="80" transform="translate(176.4 206.5) scale(.2)" xlink:href="mmmm-5.png"/>
        <image width="72" height="130" transform="translate(176.4 194.7) scale(.2)" xlink:href="mmmm-6.png"/>
        <image width="129" height="45" transform="translate(176.9 215.3) scale(.2)" xlink:href="mmmm-7.png"/>
        <line class="cls-3" x1="199.2" y1="200.5" x2="223" y2="225.5"/>
        <image width="395" height="135" transform="translate(197.5 184.9) scale(.2)" xlink:href="mmmm-8.png"/>
        <image width="158" height="65" transform="translate(218.7 210.8) scale(.2)" xlink:href="mmmm-9.png"/>
        <image width="118" height="81" transform="translate(176.7 206.5) scale(.2)" xlink:href="mmmm-10.png"/>
        <image width="176" height="5" transform="translate(218.4 205) scale(.2)" xlink:href="mmmm-11.png"/>
        <image width="31" height="76" transform="translate(176.9 179.3) scale(.2)" xlink:href="mmmm-12.png"/>
        <image width="43" height="66" transform="translate(176.9 182) scale(.2)" xlink:href="mmmm-13.png"/>
        <image width="251" height="179" transform="translate(174.5 185.3) scale(.2)" xlink:href="mmmm-14.png"/>
        <image width="97" height="109" transform="translate(176.7 199.7) scale(.2)" xlink:href="mmmm-15.png"/>
        <image width="499" height="75" transform="translate(175.7 208.1) scale(.2)" xlink:href="mmmm-16.png"/>
        <polyline class="cls-4" points="176.2 210.1 196.7 188.3 233.2 226.8"/>
        <image width="54" height="81" transform="translate(176.9 178.4) scale(.2)" xlink:href="mmmm-17.png"/>
      </g>
      <g>
        <image width="383" height="50" transform="translate(38.9 210.8) scale(.2)" xlink:href="mmmm-18.png"/>
        <polyline class="cls-1" points="39 221.3 120.6 221.3 129.7 211.9"/>
        <image width="6" height="52" transform="translate(176.9 185.1) scale(.2)" xlink:href="mmmm-19.png"/>
        <image width="156" height="163" transform="translate(131.3 187.3) scale(.2)" xlink:href="mmmm-20.png"/>
        <image width="20" height="22" transform="translate(178.6 195.4) scale(.2)" xlink:href="mmmm-21.png"/>
        <image width="18" height="80" transform="translate(174.5 206.5) scale(.2)" xlink:href="mmmm-22.png"/>
        <image width="72" height="130" transform="translate(161.5 194.7) scale(.2)" xlink:href="mmmm-23.png"/>
        <image width="129" height="45" transform="translate(147.4 215.3) scale(.2)" xlink:href="mmmm-24.png"/>
        <line class="cls-3" x1="156" y1="200.5" x2="132.2" y2="225.5"/>
        <image width="395" height="135" transform="translate(62.9 184.9) scale(.2)" xlink:href="mmmm-25.png"/>
        <image width="158" height="65" transform="translate(98.7 210.8) scale(.2)" xlink:href="mmmm-26.png"/>
        <image width="118" height="81" transform="translate(150.3 206.5) scale(.2)" xlink:href="mmmm-27.png"/>
        <image width="176" height="5" transform="translate(94.6 205) scale(.2)" xlink:href="mmmm-28.png"/>
        <image width="31" height="76" transform="translate(170.9 179.3) scale(.2)" xlink:href="mmmm-29.png"/>
        <image width="43" height="66" transform="translate(168 182) scale(.2)" xlink:href="mmmm-30.png"/>
        <image width="251" height="179" transform="translate(120.5 185.3) scale(.2)" xlink:href="mmmm-31.png"/>
        <image width="97" height="109" transform="translate(155.3 199.7) scale(.2)" xlink:href="mmmm-32.png"/>
        <image width="499" height="75" transform="translate(59.8 208.1) scale(.2)" xlink:href="mmmm-33.png"/>
        <polyline class="cls-5" points="179.1 210.1 158.5 188.3 122 226.8"/>
        <image width="54" height="81" transform="translate(165.4 178.4) scale(.2)" xlink:href="mmmm-34.png"/>
      </g>
    </g>
  </g>
</svg>